<svg xmlns="http://www.w3.org/2000/svg" version="1.1" xmlns:xlink="http://www.w3.org/1999/xlink" xmlns:svgjs="http://svgjs.dev/svgjs" width="1500" height="984" viewBox="0 0 1500 984"><g transform="matrix(1,0,0,1,-1.440170012943895,-1.5863640831124712)"><svg viewBox="0 0 378 248" data-background-color="#ffffff" preserveAspectRatio="xMidYMid meet" height="984" width="1500" xmlns="http://www.w3.org/2000/svg" xmlns:xlink="http://www.w3.org/1999/xlink"><g id="tight-bounds" transform="matrix(1,0,0,1,0.3632982678491885,0.40002634420793015)"><svg viewBox="0 0 377.27377888888896 247.2" height="247.2" width="377.27377888888896"><g><svg viewBox="0 0 377.27377888888896 247.2" height="247.2" width="377.27377888888896"><g><svg viewBox="0 0 377.27377888888896 247.2" height="247.2" width="377.27377888888896"><g id="textblocktransform"><svg viewBox="0 0 377.27377888888896 247.2" height="247.2" width="377.27377888888896" id="textblock"><g><svg viewBox="0 0 377.27377888888896 247.2" height="247.2" width="377.27377888888896"><path d="M376.391 53.02C374.617 27.36 369.562 20.227 369.562 20.227 354.043-6.202 334.674-0.506 317.275 3.292 286.555 3.446 255.96 9.091 225.311 12.119 160.981 12.581 96.101 4.986 32.091 23.717 26.078 29.464-6.238 24.846 1.069 56.304 2.985 69.39 9.973 83.913 9.76 95.922 10.718 98.026 12.048 93.202 12.616 96.23 14.602 104.39 17.848 100.541 20.509 105.365 16.802 118.246 19.462 128.971 21.999 140.21 17.529 143.135 11.8 141.749 9.228 151.449 8.962 158.479 7.526 157.145 5.947 156.837 4.794 156.632 2.471 157.402 2.861 159.608 4.191 167.152-1.52 171.514 2.063 178.904-0.403 186.91 3.765 193.838 3.198 202.511 3.127 204.255 3.517 205.744 4.138 206.154 6.887 208.361 2.879 212.672 3.304 217.342 31.505 249.262 62.101 227.195 90.993 241.872 98.496 231.608 92.856 245.516 95.853 243.36 98.194 240.846 99.897 251.263 102.54 245.362 102.948 243.668 102.327 239.665 103.781 240.435 104.544 240.846 105.218 240.743 105.324 238.382 105.484 234.841 104.083 237.048 103.71 235.201 107.737 225.861 106.743 248.081 110.521 247.158 110.344 244.438 109.244 240.538 111.497 241.051 113.731 237.151 113.802 233.918 115.789 242.693 115.86 244.592 116.215 245.926 116.782 246.85 122.99 237.305 129.162 250.237 135.671 245.926 139.662 241.205 143.493 248.492 147.537 246.696 148.956 245.259 150.393 242.693 151.758 247.004 168.484 247.928 186.309 244.079 202.165 247.158 244.538 241.41 289.819 249.518 334.497 241.923 345.032 238.998 355.976 234.841 366.245 231.506 366.245 231.506 374.564 222.371 374.564 181.316S376.337 145.393 376.603 112.703C376.869 80.013 378.111 78.679 376.337 53.02Z" opacity="1" fill="#003366" data-fill-palette-color="tertiary"></path><g transform="matrix(1,0,0,1,55.76832,26.230666666666668)"><svg width="265.7371388888889" viewBox="-2.3 -33.2 45.849999999999994 33.6" height="194.73866666666666" data-palette-color="#ffffff"><path d="M16.25-30.05L16.25-30.05Q16.25-26.9 20.15-14.75L20.15-14.75 21.75-9.75 22.1-9.85Q22.15-10.9 28.3-30.45L28.3-30.45Q28.3-30.95 27.75-31.43 27.2-31.9 26.6-32.05L26.6-32.05 26.75-32.75Q29.25-32.55 33.6-32.55 37.95-32.55 40.55-32.95L40.55-32.95 40.8-31.7Q38.4-30.95 35.95-30.65L35.95-30.65Q35.7-29.45 35.7-26.38 35.7-23.3 36.52-14.05 37.35-4.8 38.05-1.75L38.05-1.75Q40.7-1.5 43.55-0.8L43.55-0.8 43.4 0.4Q39.7 0 35.4 0 31.1 0 28.45 0.4L28.45 0.4 28.25-0.85Q30.5-1.55 33.05-1.9L33.05-1.9Q33.05-6.65 32.5-15 31.95-23.35 31.1-29.3L31.1-29.3 30.95-29.35Q23.8-9.55 23.45-5.25L23.45-5.25Q20.2-3.3 18.6-1.45L18.6-1.45 18-1.85Q18.1-2.95 18.1-3.5L18.1-3.5Q18.1-9.35 11.55-29.35L11.55-29.35 11.35-29.3 9.8-18.35Q8.8-11.2 8.8-5.45L8.8-5.45Q8.8-3.6 9.22-2.4 9.65-1.2 10.95-0.5L10.95-0.5 10.75 0.2Q9.2 0 5.48 0 1.75 0-1.2 0.4L-1.2 0.4-1.4-0.85Q0.85-1.55 3.4-1.9L3.4-1.9 9-29.8Q3.1-29.8 1.45-28.2L1.45-28.2Q1.1-27.5 1.1-26 1.1-24.5 1.6-23.95L1.6-23.95 1.55-23.6Q0.3-22.85-0.95-21.5L-0.95-21.5Q-1.55-21.55-1.93-22-2.3-22.45-2.3-23.05L-2.3-23.05Q-2.3-25.5 0.65-28.9 3.6-32.3 6.15-33.2L6.15-33.2Q6.55-33.2 9.75-32.88 12.95-32.55 14.73-32.55 16.5-32.55 18.1-32.85L18.1-32.85 18.3-31.6Q16.25-30.8 16.25-30.05Z" opacity="1" transform="matrix(1,0,0,1,0,0)" fill="#ffffff" class="wordmark-text-0" data-fill-palette-color="quaternary" id="text-0"></path></svg></g></svg></g></svg></g></svg></g><g></g></svg></g><defs></defs></svg><rect width="377.27377888888896" height="247.2" fill="none" stroke="none" visibility="hidden"></rect></g></svg></g></svg>